Coordinates
version=1
nRows=6
nColumns=63
inDegrees=yes

Units are S.I. units (second, meters, Newtons, ...)
If the header above contains a line with 'inDegrees', this indicates whether rotational values are in degrees (yes) or radians (no).

endheader
time	pelvis_tilt	pelvis_list	pelvis_rotation	pelvis_tx	pelvis_ty	pelvis_tz	hip_flexion_r	hip_adduction_r	hip_rotation_r	knee_angle_r	knee_angle_r_beta	ankle_angle_r	subtalar_angle_r	mtp_angle_r	hip_flexion_l	hip_adduction_l	hip_rotation_l	knee_angle_l	knee_angle_l_beta	ankle_angle_l	subtalar_angle_l	mtp_angle_l	L5_S1_Flex_Ext	L5_S1_Lat_Bending	L5_S1_axial_rotation	L4_L5_Flex_Ext	L4_L5_Lat_Bending	L4_L5_axial_rotation	L3_L4_Flex_Ext	L3_L4_Lat_Bending	L3_L4_axial_rotation	L2_L3_Flex_Ext	L2_L3_Lat_Bending	L2_L3_axial_rotation	L1_L2_Flex_Ext	L1_L2_Lat_Bending	L1_L2_axial_rotation	L1_T12_Flex_Ext	L1_T12_Lat_Bending	L1_T12_axial_rotation	Abs_r3	Abs_r2	Abs_r1	Abs_t1	Abs_t2	neck_flexion	neck_bending	neck_rotation	arm_flex_r	arm_add_r	arm_rot_r	elbow_flex_r	pro_sup_r	wrist_flex_r	wrist_dev_r	arm_flex_l	arm_add_l	arm_rot_l	elbow_flex_l	pro_sup_l	wrist_flex_l	wrist_dev_l
2.150000	-2.077042	3.947360	102.044304	0.053627	0.868248	0.597232	-0.429378	0.964016	-2.813008	10.275880	0.179348	29.607561	-7.065119	0.000000	-3.152391	1.386442	0.399140	2.652759	0.046299	31.472966	1.011750	0.000000	-0.005385	0.152268	-0.932839	-0.010001	0.202516	-0.991142	-0.008847	0.370223	-0.991142	-0.006155	0.370223	-0.816234	-0.005001	0.310504	-0.757932	-0.003077	0.235862	-0.699629	-0.038466	1.722481	-5.188172	0.000000	0.000000	19.185563	3.422767	10.489690	11.028082	-11.271791	175.630243	-0.589619	-1.225211	2.877739	-12.660765	0.585631	-18.492376	57.580413	25.894052	88.081983	-15.488734	1.047520
2.166667	-2.063482	3.908877	102.000790	0.053577	0.868054	0.597275	-0.346047	0.954206	-2.776626	10.376343	0.181101	29.559394	-7.141700	0.000000	-3.094302	1.394871	0.393242	2.742996	0.047874	31.475734	0.982309	0.000000	-0.003436	0.157602	-0.912685	-0.006382	0.209611	-0.969728	-0.005646	0.383194	-0.969728	-0.003927	0.383194	-0.798600	-0.003191	0.321383	-0.741557	-0.001964	0.244126	-0.684514	-0.024546	1.782829	-5.076083	0.000000	0.000000	19.170199	3.603651	10.984250	10.845385	-11.728373	169.818626	0.633098	2.526113	3.095906	-11.706008	0.635693	-18.433687	57.796280	25.852066	88.081301	-15.676506	0.989051
2.183333	-2.044658	3.911628	101.947543	0.053416	0.867932	0.597136	-0.343298	0.954248	-2.719797	10.409566	0.181681	29.513161	-7.186620	0.000000	-3.111006	1.400587	0.604044	2.794400	0.048771	31.413142	0.648960	0.000000	-0.003686	0.166340	-0.894063	-0.006846	0.221232	-0.949942	-0.006056	0.404439	-0.949942	-0.004213	0.404439	-0.782305	-0.003423	0.339201	-0.726426	-0.002106	0.257661	-0.670547	-0.026332	1.881672	-4.972509	0.000000	0.000000	19.132983	3.789138	11.553021	10.517360	-12.353865	162.086098	2.320190	7.751471	3.126236	-10.454299	0.653507	-18.353164	57.939910	25.833832	88.088155	-15.792398	0.991262
2.200000	-2.015372	3.948899	101.876644	0.053172	0.867871	0.596835	-0.409975	0.968781	-2.651771	10.373524	0.181052	29.475102	-7.174854	0.000000	-3.188818	1.394970	0.871889	2.815643	0.049142	31.335888	0.220768	0.000000	-0.005176	0.178881	-0.874092	-0.009612	0.237911	-0.928723	-0.008503	0.434930	-0.928723	-0.005915	0.434930	-0.764831	-0.004806	0.364773	-0.710200	-0.002957	0.277086	-0.655569	-0.036971	2.023533	-4.861438	0.000000	0.000000	19.073624	3.950937	12.158755	10.051170	-13.120203	152.686664	4.382525	14.250419	3.005005	-8.983078	0.662260	-18.249109	58.101573	25.818392	88.092878	-15.867396	1.046297
2.216667	-1.977860	4.020257	101.827221	0.052820	0.867863	0.596407	-0.553320	1.002637	-2.547970	10.255821	0.178998	29.421522	-7.197973	0.000000	-3.317712	1.374583	1.175447	2.815830	0.049146	31.263732	-0.220000	0.000000	-0.008191	0.194348	-0.863254	-0.015211	0.258483	-0.917207	-0.013456	0.472538	-0.917207	-0.009361	0.472538	-0.755347	-0.007606	0.396314	-0.701394	-0.004680	0.301045	-0.647440	-0.058504	2.198503	-4.801158	0.000000	0.000000	18.989188	4.110687	12.809564	9.470913	-13.989339	141.949673	6.738496	21.779867	2.739678	-7.342014	0.634491	-18.129661	58.169381	25.820997	88.104957	-15.858903	1.152520
2.233333	-1.929722	4.122800	101.766945	0.052409	0.867906	0.595868	-0.758816	1.047226	-2.518054	10.078486	0.175903	29.402078	-7.052263	0.000000	-3.496185	1.338582	1.416788	2.794790	0.048778	31.208202	-0.587641	0.000000	-0.012700	0.212863	-0.852635	-0.023586	0.283108	-0.905925	-0.020865	0.517556	-0.905925	-0.014515	0.517556	-0.746056	-0.011793	0.434071	-0.692766	-0.007257	0.329725	-0.639477	-0.090717	2.407953	-4.742102	0.000000	0.000000	18.892055	4.245076	13.461382	8.777963	-14.939474	130.264720	9.323013	30.042722	2.367605	-5.546975	0.599844	-17.991284	58.262416	25.817613	88.112147	-15.816277	1.287768
